# Blender 3.4.0 Alpha
# www.blender.org
mtllib Gras_tl.mtl
o Plane.004
v 49.622593 9.244552 -0.000000
v 44.804413 9.244552 -0.000000
v 48.440563 -1.000000 -0.000000
v 42.198399 -1.000000 -0.000000
v 52.845280 21.612946 -0.000000
v 48.328117 21.612946 -0.000000
v 58.127235 30.730228 -0.000000
v 54.647968 30.730228 -0.000000
v 62.753677 38.811245 -0.000000
v 49.622593 9.244552 1.000000
v 44.804413 9.244552 1.000000
v 48.440563 -1.000000 1.000000
v 42.198399 -1.000000 1.000000
v 52.845280 21.612946 1.000000
v 48.328117 21.612946 1.000000
v 58.127235 30.730228 1.000000
v 54.647968 30.730228 1.000000
v 62.753677 38.811245 1.000000
vn -0.0000 -0.0000 1.0000
vn -0.0000 -0.0000 -1.0000
vn -0.0000 1.0000 -0.0000
vn -0.8678 0.4968 -0.0000
vn -0.9934 0.1146 -0.0000
vn 0.7060 -0.7082 -0.0000
vn -0.8653 0.5013 -0.0000
vn -0.9677 0.2521 -0.0000
vn 0.9691 -0.2465 -0.0000
vn 0.8219 -0.5697 -0.0000
vn 0.9617 -0.2740 -0.0000
vt 0.352270 0.182477
vt 0.352011 0.183593
vt 0.400837 0.168171
vt 0.402195 0.168608
vt 0.333768 0.075702
vt 0.331518 0.074177
vt 0.331995 0.073530
vt 0.396689 0.057169
vt 0.397698 0.055600
vt 0.356507 0.316718
vt 0.358504 0.315461
vt 0.402040 0.303306
vt 0.401553 0.301821
vt 0.330334 0.424302
vt 0.330233 0.423839
vt 0.365405 0.413972
vt 0.365572 0.411967
vt 0.307692 0.519494
vt 0.309672 0.518105
vt 0.352683 0.180089
vt 0.352076 0.180112
vt 0.401250 0.165783
vt 0.402423 0.167965
vt 0.334181 0.073314
vt 0.334316 0.074819
vt 0.334671 0.074400
vt 0.397102 0.054781
vt 0.397283 0.053673
vt 0.356920 0.314330
vt 0.358089 0.316103
vt 0.402452 0.300918
vt 0.403066 0.301821
vt 0.330747 0.421914
vt 0.332388 0.423839
vt 0.365818 0.411584
vt 0.365799 0.411967
vt 0.308105 0.517106
vt 0.309900 0.518105
s 0
usemtl Material.005
f 1/1/1 2/3/1 4/8/1 3/5/1
f 2/3/1 1/1/1 5/10/1 6/12/1
f 6/12/1 5/10/1 7/14/1 8/16/1
f 8/16/1 7/14/1 9/18/1
f 10/20/2 12/24/2 13/27/2 11/22/2
f 11/22/2 15/31/2 14/29/2 10/20/2
f 15/31/2 17/35/2 16/33/2 14/29/2
f 17/35/2 18/37/2 16/33/2
f 4/9/3 13/28/3 12/25/3 3/6/3
f 7/15/4 16/34/4 18/38/4 9/19/4
f 3/7/5 12/26/5 10/21/5 1/2/5
f 9/19/6 18/38/6 17/36/6 8/17/6
f 5/11/7 14/30/7 16/34/7 7/15/7
f 1/2/8 10/21/8 14/30/8 5/11/8
f 2/4/9 11/23/9 13/28/9 4/9/9
f 8/17/10 17/36/10 15/32/10 6/13/10
f 6/13/11 15/32/11 11/23/11 2/4/11
