# Blender 3.4.0 Alpha
# www.blender.org
mtllib Gras_ml.mtl
o Plane.005
v 63.480213 9.025426 -0.000000
v 59.362278 9.025426 -0.000000
v 61.179070 -1.000000 -0.000000
v 55.620453 -1.000000 -0.000000
v 66.228073 15.683868 -0.000000
v 62.986332 15.683868 -0.000000
v 71.647240 22.139343 -0.000000
v 68.855026 22.139343 -0.000000
v 77.709091 28.067463 -0.000000
v 63.480213 9.025426 1.000000
v 59.362278 9.025426 1.000000
v 61.179070 -1.000000 1.000000
v 55.620453 -1.000000 1.000000
v 66.228073 15.683868 1.000000
v 62.986332 15.683868 1.000000
v 71.647240 22.139343 1.000000
v 68.855026 22.139343 1.000000
v 77.709091 28.067463 1.000000
vn -0.0000 -0.0000 1.0000
vn -0.0000 -0.0000 -1.0000
vn 0.9369 -0.3497 -0.0000
vn -0.7659 0.6430 -0.0000
vn -0.9244 0.3815 -0.0000
vn -0.0000 1.0000 -0.0000
vn -0.6992 0.7149 -0.0000
vn -0.9747 0.2237 -0.0000
vn 0.8783 -0.4781 -0.0000
vn 0.5564 -0.8309 -0.0000
vn 0.7399 -0.6727 -0.0000
vt 0.476667 0.245119
vt 0.475986 0.245222
vt 0.429235 0.221361
vt 0.428993 0.221699
vt 0.508002 0.116366
vt 0.509925 0.117533
vt 0.505574 0.118404
vt 0.443975 0.084296
vt 0.442917 0.082973
vt 0.469904 0.337667
vt 0.468154 0.337787
vt 0.432564 0.318964
vt 0.432474 0.318489
vt 0.495080 0.443289
vt 0.494261 0.443283
vt 0.462918 0.427179
vt 0.463803 0.426529
vt 0.530702 0.546544
vt 0.530811 0.545522
vt 0.476535 0.243383
vt 0.478426 0.244352
vt 0.429102 0.219625
vt 0.429693 0.221699
vt 0.507869 0.114630
vt 0.507144 0.117533
vt 0.507144 0.118404
vt 0.443842 0.082561
vt 0.443617 0.083844
vt 0.469771 0.335931
vt 0.467983 0.336046
vt 0.432431 0.317228
vt 0.432303 0.318489
vt 0.494948 0.441553
vt 0.494090 0.442413
vt 0.462786 0.425443
vt 0.463632 0.426529
vt 0.530569 0.544808
vt 0.528899 0.544652
s 0
usemtl Material.006
f 1/1/1 2/3/1 4/8/1 3/5/1
f 2/3/1 1/1/1 5/10/1 6/12/1
f 6/12/1 5/10/1 7/14/1 8/16/1
f 8/16/1 7/14/1 9/18/1
f 10/20/2 12/24/2 13/27/2 11/22/2
f 11/22/2 15/31/2 14/29/2 10/20/2
f 15/31/2 17/35/2 16/33/2 14/29/2
f 17/35/2 18/37/2 16/33/2
f 2/4/3 11/23/3 13/28/3 4/9/3
f 5/11/4 14/30/4 16/34/4 7/15/4
f 1/2/5 10/21/5 14/30/5 5/11/5
f 4/9/6 13/28/6 12/25/6 3/6/6
f 7/15/7 16/34/7 18/38/7 9/19/7
f 3/7/8 12/26/8 10/21/8 1/2/8
f 6/13/9 15/32/9 11/23/9 2/4/9
f 9/19/10 18/38/10 17/36/10 8/17/10
f 8/17/11 17/36/11 15/32/11 6/13/11
