# Blender 3.4.0 Alpha
# www.blender.org
mtllib Gras_sr.mtl
o Plane.002
v -18.431170 4.933451 -0.000000
v -14.097837 4.933451 -0.000000
v -15.770670 -1.000000 -0.000000
v -12.013224 -1.000000 -0.000000
v -22.701035 10.178051 -0.000000
v -18.943588 10.178051 -0.000000
v -27.003447 14.454899 -0.000000
v -18.431170 4.933451 1.000000
v -14.097837 4.933451 1.000000
v -15.770670 -1.000000 1.000000
v -12.013224 -1.000000 1.000000
v -22.701035 10.178051 1.000000
v -18.943588 10.178051 1.000000
v -27.003447 14.454899 1.000000
vn -0.0000 -0.0000 1.0000
vn -0.0000 -0.0000 -1.0000
vn -0.0000 1.0000 -0.0000
vn -0.4687 -0.8833 -0.0000
vn -0.7345 -0.6786 -0.0000
vn -0.9435 -0.3315 -0.0000
vn 0.9125 0.4091 -0.0000
vn 0.7050 0.7092 -0.0000
vn 0.7755 0.6314 -0.0000
vt 0.483773 0.260177
vt 0.485748 0.260586
vt 0.406984 0.204366
vt 0.403627 0.201756
vt 0.513047 0.120768
vt 0.511487 0.120176
vt 0.512712 0.121129
vt 0.446463 0.072374
vt 0.446526 0.071340
vt 0.491889 0.408106
vt 0.493102 0.407823
vt 0.425306 0.359713
vt 0.423238 0.356954
vt 0.513047 0.539306
vt 0.510261 0.537223
vt 0.483320 0.261402
vt 0.485592 0.260586
vt 0.406531 0.205592
vt 0.404697 0.204207
vt 0.512594 0.121994
vt 0.512557 0.121401
vt 0.513782 0.126032
vt 0.446010 0.073600
vt 0.447596 0.068889
vt 0.491436 0.409332
vt 0.494171 0.407823
vt 0.424853 0.360938
vt 0.424308 0.358179
vt 0.512594 0.540532
vt 0.512557 0.535997
s 0
usemtl Material.002
f 1/1/1 3/5/1 4/8/1 2/3/1
f 2/3/1 6/12/1 5/10/1 1/1/1
f 6/12/1 7/14/1 5/10/1
f 8/16/2 9/18/2 11/23/2 10/20/2
f 9/18/2 8/16/2 12/25/2 13/27/2
f 13/27/2 12/25/2 14/29/2
f 4/9/3 3/6/3 10/21/3 11/24/3
f 7/15/4 6/13/4 13/28/4 14/30/4
f 6/13/5 2/4/5 9/19/5 13/28/5
f 2/4/6 4/9/6 11/24/6 9/19/6
f 3/7/7 1/2/7 8/17/7 10/22/7
f 5/11/8 7/15/8 14/30/8 12/26/8
f 1/2/9 5/11/9 12/26/9 8/17/9
