# Blender 3.4.0 Alpha
# www.blender.org
mtllib antree.mtl
o Baum
v -0.265480 2.727592 -2.973969
v -0.298061 0.467996 -2.973969
v -0.176023 2.807387 -2.973969
v 0.004985 0.471767 -2.973969
v -0.301832 0.351095 -2.973969
v 0.031382 0.283217 -2.973969
v -0.309374 0.219110 -2.973969
v 0.091718 0.170087 -2.973969
v -0.350855 0.109750 -2.973969
v 0.163367 0.113521 -2.973969
v -0.437589 0.056956 -2.973969
v 0.280269 0.060727 -2.973969
v -0.298061 0.796124 -2.973969
v -0.024712 0.799895 -2.973969
v 0.090882 1.502677 -2.973969
v -0.406667 1.498906 -2.973969
v -0.112221 2.102424 -2.973969
v -0.298061 2.098653 -2.973969
v 0.242117 2.012844 -2.973969
v -0.504996 2.029135 -2.973969
v 0.204406 0.903865 -2.973969
v -0.563069 0.935843 -2.973969
v -0.298061 2.050451 -2.973969
v -0.108785 2.005350 -2.973969
v 0.440170 1.356236 -2.973969
v -0.726278 1.452019 -2.973969
v 0.183196 1.394072 -2.973969
v 0.551943 0.860423 -2.973969
v 0.602097 1.071147 -2.973969
v 0.765005 1.011414 -2.973969
v 0.043262 1.902175 -2.973969
v 0.575926 1.410538 -2.973969
v 0.618388 1.532719 -2.973969
v -0.532826 2.119187 -2.973969
v -0.374085 2.586406 -2.973969
v -0.674012 2.064884 -2.973969
v -0.836920 0.864798 -2.973969
v -0.826059 1.060287 -2.973969
v -0.444678 1.925555 -2.973969
v -0.954349 1.294542 -2.973969
v -0.249790 2.727592 0.000002
v -0.282371 0.467996 0.000002
v -0.160333 2.807387 0.000002
v 0.020675 0.471767 0.000002
v -0.286142 0.351095 0.000002
v 0.047072 0.283217 0.000002
v -0.293684 0.219109 0.000002
v 0.107408 0.170086 0.000002
v -0.335165 0.109750 0.000002
v 0.179058 0.113521 0.000002
v -0.421898 0.056956 0.000002
v 0.295959 0.060727 0.000002
v -0.282371 0.796124 0.000002
v -0.009022 0.799895 0.000002
v 0.106572 1.502677 0.000002
v -0.390976 1.498906 0.000002
v -0.096531 2.102424 0.000001
v -0.282371 2.098653 0.000002
v 0.257807 2.012844 0.000002
v -0.489305 2.029135 0.000002
v 0.220097 0.903865 0.000002
v -0.547379 0.935843 0.000002
v -0.282371 2.050451 0.000002
v -0.093095 2.005350 0.000002
v 0.455860 1.356235 0.000002
v -0.710588 1.452019 0.000002
v 0.198886 1.394072 0.000002
v 0.567633 0.860423 0.000002
v 0.617788 1.071147 0.000001
v 0.780695 1.011414 0.000002
v 0.058952 1.902175 0.000002
v 0.591616 1.410538 0.000002
v 0.634078 1.532719 0.000002
v -0.517135 2.119186 0.000001
v -0.358395 2.586406 0.000002
v -0.658322 2.064884 0.000002
v -0.821230 0.864798 0.000002
v -0.810369 1.060287 0.000002
v -0.428988 1.925555 0.000002
v -0.938659 1.294542 0.000002
vn -0.0000 -0.0000 -1.0000
vn -0.0000 -0.0000 1.0000
vn 0.4116 0.9114 -0.0022
vn 0.7619 0.6476 -0.0040
vn -1.0000 -0.0000 0.0053
vn -0.9554 -0.2953 0.0050
vn -0.5199 0.8542 0.0027
vn -0.1240 -0.9923 0.0007
vn -0.9984 0.0555 0.0053
vn 0.6105 0.7920 -0.0032
vn 0.4132 -0.9106 -0.0022
vn -0.7228 0.6911 0.0038
vn 0.9959 0.0901 -0.0053
vn 0.3443 0.9389 -0.0018
vn -0.4664 -0.8846 0.0025
vn -0.7779 0.6283 0.0041
vn 0.5782 -0.8159 -0.0031
vn 0.9903 0.1386 -0.0052
vn 0.2511 -0.9680 -0.0013
vn 0.5682 -0.8229 -0.0030
vn -0.9995 0.0322 0.0053
vn -0.6485 0.7612 0.0034
vn 0.5615 0.8275 -0.0030
vn 0.3714 -0.9285 -0.0020
vn 0.8823 0.4706 -0.0047
vn 0.9994 0.0354 -0.0053
vn 0.5405 0.8414 -0.0029
vn -0.9984 0.0570 0.0053
vn 0.9446 -0.3283 -0.0050
vn -0.3867 -0.9222 0.0020
vn 0.6196 0.7849 -0.0033
vn 0.1451 -0.9894 -0.0008
vn 0.8849 0.4657 -0.0047
vn -0.8669 0.4985 0.0046
vn -0.9350 0.3546 0.0049
vn -0.2451 -0.9695 0.0013
vn 0.3590 -0.9333 -0.0019
vn 0.0053 -1.0000 -0.0000
vn -0.6657 0.7463 0.0035
vn 0.3185 -0.9479 -0.0017
vn -0.7926 0.6097 0.0042
vn -0.9984 0.0571 0.0053
vn -0.3866 -0.9222 0.0020
vt 0.227844 0.901702
vt 0.228974 0.266254
vt 0.778717 0.742919
vt 0.782125 0.191783
vt 0.241764 0.915133
vt 0.243528 0.280411
vt 0.241578 0.278711
vt 0.887806 0.743703
vt 0.882476 0.193522
vt 0.777139 0.700847
vt 0.779556 0.150115
vt 0.896951 0.675785
vt 0.892948 0.121573
vt 0.774174 0.653354
vt 0.763212 0.061474
vt 0.918455 0.634949
vt 0.914396 0.081467
vt 0.759036 0.614068
vt 0.737159 0.041747
vt 0.944138 0.614453
vt 0.940254 0.060308
vt 0.727717 0.595229
vt 0.746068 0.045471
vt 0.986117 0.595229
vt 0.970785 0.041456
vt 0.779338 0.861028
vt 0.783924 0.308448
vt 0.196261 0.368351
vt 0.192476 0.364518
vt 0.196261 0.101194
vt 0.269597 0.095217
vt 0.877737 0.861869
vt 0.267791 0.362724
vt 0.869501 0.311680
vt 0.306765 0.554229
vt 0.306903 0.555063
vt 0.306765 0.287073
vt 0.176701 0.558746
vt 0.169847 0.559178
vt 0.176701 0.291589
vt 0.257555 0.167657
vt 0.256505 0.801870
vt 0.853799 0.384610
vt 0.850506 0.383423
vt 0.226564 0.800088
vt 0.853799 0.153898
vt 0.796342 0.156549
vt 0.226564 0.165592
vt 0.227456 0.166095
vt 0.314202 0.789665
vt 0.314932 0.156264
vt 0.193638 0.153076
vt 0.196787 0.153724
vt 0.331963 0.388983
vt 0.335889 0.122117
vt 0.123711 0.408890
vt 0.120944 0.405739
vt 0.123711 0.141734
vt 0.205469 0.709940
vt 0.793983 0.152684
vt 0.853346 0.162106
vt 0.201827 0.436077
vt 0.257125 0.695559
vt 0.733250 0.386429
vt 0.254479 0.427022
vt 0.848640 0.376795
vt 0.403246 0.511523
vt 0.401575 0.511117
vt 0.403246 0.244367
vt 0.079064 0.549693
vt 0.081345 0.549577
vt 0.079064 0.282537
vt 0.331200 0.524198
vt 0.332252 0.256245
vt 0.427220 0.373420
vt 0.430823 0.107711
vt 0.443214 0.430930
vt 0.445040 0.165502
vt 0.487458 0.412793
vt 0.489013 0.147541
vt 0.297928 0.665571
vt 0.300017 0.400791
vt 0.439523 0.524665
vt 0.439994 0.258416
vt 0.452482 0.557871
vt 0.453265 0.291605
vt 0.189108 0.803547
vt 0.188582 0.167420
vt 0.188582 0.801916
vt 0.189108 0.169051
vt 0.211225 0.878251
vt 0.211000 0.244071
vt 0.167146 0.793911
vt 0.166161 0.792268
vt 0.167146 0.159415
vt 0.044794 0.389011
vt 0.053241 0.391440
vt 0.053241 0.124284
vt 0.049809 0.442733
vt 0.055336 0.176038
vt 0.163799 0.677064
vt 0.164150 0.404945
vt 0.016907 0.508573
vt 0.019064 0.240626
vt 0.229271 0.901793
vt 0.231757 0.263248
vt 0.777705 0.742475
vt 0.777580 0.191388
vt 0.243011 0.915051
vt 0.245753 0.275705
vt 0.242137 0.278796
vt 0.888821 0.743274
vt 0.887779 0.193127
vt 0.776097 0.699621
vt 0.775011 0.148204
vt 0.898136 0.674092
vt 0.897494 0.124965
vt 0.773077 0.651244
vt 0.774576 0.100472
vt 0.920040 0.632498
vt 0.920456 0.083344
vt 0.757658 0.611229
vt 0.756099 0.061048
vt 0.946201 0.611621
vt 0.944800 0.062185
vt 0.725757 0.592039
vt 0.744554 0.042045
vt 0.988960 0.592039
vt 0.983664 0.044090
vt 0.778337 0.862780
vt 0.196473 0.361009
vt 0.780137 0.310325
vt 0.197876 0.095629
vt 0.878565 0.863636
vt 0.272284 0.360742
vt 0.267358 0.097475
vt 0.876319 0.312800
vt 0.304416 0.559141
vt 0.307709 0.555048
vt 0.304416 0.291984
vt 0.169735 0.556391
vt 0.169967 0.288807
vt 0.257561 0.803251
vt 0.853799 0.384760
vt 0.737858 0.377991
vt 0.256163 0.174391
vt 0.853799 0.154048
vt 0.228008 0.801492
vt 0.796342 0.153382
vt 0.228847 0.170045
vt 0.314515 0.791203
vt 0.307975 0.161607
vt 0.195507 0.789137
vt 0.195395 0.157675
vt 0.336311 0.388469
vt 0.327686 0.122726
vt 0.123934 0.403325
vt 0.123665 0.401021
vt 0.123934 0.136169
vt 0.203442 0.440947
vt 0.793983 0.152834
vt 0.202496 0.708797
vt 0.851955 0.157547
vt 0.733784 0.384615
vt 0.254761 0.695383
vt 0.733250 0.386580
vt 0.249220 0.422738
vt 0.403853 0.512766
vt 0.400419 0.246146
vt 0.080679 0.547606
vt 0.080891 0.544926
vt 0.080679 0.280450
vt 0.332783 0.524492
vt 0.329626 0.252471
vt 0.432464 0.374756
vt 0.427678 0.109321
vt 0.447382 0.432942
vt 0.442226 0.160124
vt 0.492265 0.415598
vt 0.484042 0.145102
vt 0.296424 0.666045
vt 0.294223 0.394576
vt 0.441755 0.527171
vt 0.436930 0.262700
vt 0.454115 0.560845
vt 0.446875 0.289842
vt 0.190516 0.803296
vt 0.189108 0.174393
vt 0.212867 0.878646
vt 0.212391 0.238282
vt 0.168384 0.793773
vt 0.172711 0.797862
vt 0.172711 0.163366
vt 0.049985 0.386570
vt 0.047393 0.382637
vt 0.049985 0.119414
vt 0.051343 0.436789
vt 0.050689 0.172560
vt 0.161244 0.674871
vt 0.161590 0.407728
vt 0.016897 0.502357
vt 0.016504 0.239234
s 0
usemtl Material.001
f 14/32/1 2/3/1 13/26/1
f 4/8/1 5/10/1 2/3/1
f 6/12/1 7/14/1 5/10/1
f 8/16/1 9/18/1 7/14/1
f 10/20/1 11/22/1 9/18/1
f 16/39/1 14/33/1 13/29/1
f 24/63/1 16/39/1 23/59/1
f 1/1/1 17/42/1 18/45/1
f 3/5/1 19/50/1 17/42/1
f 18/45/1 34/89/1 1/1/1
f 15/36/1 21/54/1 14/33/1
f 53/131/2 56/141/2 62/158/2
f 17/43/1 23/60/1 18/46/1
f 24/63/1 25/68/1 15/36/1
f 16/39/1 26/71/1 23/59/1
f 27/73/1 21/54/1 15/36/1
f 29/77/1 28/75/1 27/73/1
f 31/81/1 25/68/1 24/63/1
f 31/81/1 33/85/1 32/83/1
f 34/89/1 35/91/1 1/1/1
f 37/96/1 38/99/1 16/39/1
f 26/71/1 39/101/1 23/59/1
f 42/107/2 54/134/2 53/130/2
f 44/112/2 45/114/2 46/116/2
f 46/116/2 47/118/2 48/120/2
f 48/120/2 49/122/2 50/124/2
f 50/124/2 51/126/2 52/128/2
f 56/141/2 54/135/2 55/139/2
f 56/141/2 64/165/2 63/162/2
f 41/105/2 57/143/2 43/109/2
f 43/109/2 57/143/2 59/151/2
f 58/148/2 74/187/2 60/153/2
f 55/139/2 54/135/2 61/155/2
f 37/96/1 16/39/1 22/57/1
f 63/161/2 57/144/2 58/147/2
f 64/165/2 55/139/2 65/168/2
f 56/141/2 63/162/2 66/171/2
f 61/155/2 67/173/2 55/139/2
f 68/175/2 69/177/2 67/173/2
f 65/168/2 71/181/2 64/165/2
f 71/181/2 72/183/2 73/185/2
f 74/187/2 75/189/2 76/191/2
f 77/195/2 56/141/2 78/197/2
f 66/171/2 79/199/2 80/201/2
f 12/25/3 50/125/3 52/129/3
f 27/74/4 55/140/4 67/174/4
f 2/4/5 53/132/5 13/27/5
f 20/53/6 74/188/6 34/90/6
f 9/19/7 51/127/7 49/123/7
f 28/76/8 61/156/8 21/55/8
f 38/100/9 77/196/9 78/198/9
f 29/78/10 67/174/10 69/178/10
f 21/55/11 54/136/11 14/31/11
f 16/40/12 78/198/12 56/142/12
f 4/9/13 54/137/13 44/113/13
f 30/80/14 69/178/14 70/180/14
f 13/28/15 62/157/15 22/56/15
f 39/102/16 80/202/16 79/200/16
f 30/80/17 68/176/17 28/76/17
f 6/13/18 44/113/18 46/117/18
f 22/56/19 77/194/19 37/97/19
f 26/72/20 80/202/20 40/104/20
f 2/4/21 45/115/21 42/108/21
f 23/61/5 58/149/5 18/47/5
f 23/62/22 79/200/22 63/160/22
f 31/82/23 64/167/23 71/182/23
f 32/84/24 65/169/24 25/69/24
f 8/17/25 46/117/25 48/121/25
f 24/66/26 57/145/26 64/164/26
f 33/86/27 71/182/27 73/186/27
f 5/11/28 47/119/28 45/115/28
f 33/86/29 72/184/29 32/84/29
f 25/67/30 55/138/30 15/35/30
f 10/21/31 48/121/31 50/125/31
f 16/38/32 66/170/32 26/70/32
f 19/51/33 43/111/33 59/152/33
f 35/92/34 76/193/34 75/190/34
f 7/15/35 49/123/35 47/119/35
f 19/51/36 57/146/36 17/41/36
f 34/87/37 76/192/37 36/93/37
f 12/25/38 51/127/38 11/23/38
f 3/7/39 41/106/39 43/110/39
f 18/49/40 60/154/40 20/53/40
f 1/2/41 75/190/41 41/106/41
f 14/32/1 4/8/1 2/3/1
f 4/8/1 6/12/1 5/10/1
f 6/12/1 8/16/1 7/14/1
f 8/16/1 10/20/1 9/18/1
f 10/20/1 12/24/1 11/22/1
f 16/39/1 15/36/1 14/33/1
f 24/63/1 15/36/1 16/39/1
f 1/1/1 3/5/1 17/42/1
f 18/48/1 20/52/1 34/88/1
f 77/195/2 62/158/2 56/141/2
f 17/43/1 24/64/1 23/60/1
f 27/73/1 28/75/1 21/54/1
f 29/77/1 30/79/1 28/75/1
f 31/81/1 32/83/1 25/68/1
f 34/89/1 36/94/1 35/91/1
f 26/71/1 40/103/1 39/101/1
f 42/107/2 44/112/2 54/134/2
f 44/112/2 42/107/2 45/114/2
f 46/116/2 45/114/2 47/118/2
f 48/120/2 47/118/2 49/122/2
f 50/124/2 49/122/2 51/126/2
f 56/141/2 53/131/2 54/135/2
f 56/141/2 55/139/2 64/165/2
f 41/105/2 58/148/2 57/143/2
f 58/148/2 41/105/2 74/187/2
f 16/39/1 13/29/1 22/57/1
f 63/161/2 64/166/2 57/144/2
f 61/155/2 68/175/2 67/173/2
f 68/175/2 70/179/2 69/177/2
f 65/168/2 72/183/2 71/181/2
f 74/187/2 41/105/2 75/189/2
f 66/171/2 63/162/2 79/199/2
f 12/25/3 10/21/3 50/125/3
f 27/74/4 15/37/4 55/140/4
f 2/4/5 42/108/5 53/132/5
f 20/53/6 60/154/6 74/188/6
f 9/19/7 11/23/7 51/127/7
f 28/76/8 68/176/8 61/156/8
f 38/100/9 37/98/9 77/196/9
f 29/78/10 27/74/10 67/174/10
f 21/55/11 61/156/11 54/136/11
f 16/40/12 38/100/12 78/198/12
f 4/9/13 14/34/13 54/137/13
f 30/80/14 29/78/14 69/178/14
f 13/30/15 53/133/15 62/159/15
f 39/102/16 40/104/16 80/202/16
f 30/80/17 70/180/17 68/176/17
f 6/13/18 4/9/18 44/113/18
f 22/58/19 62/159/19 77/196/19
f 26/72/20 66/172/20 80/202/20
f 2/4/21 5/11/21 45/115/21
f 23/61/5 63/163/5 58/149/5
f 23/62/22 39/102/22 79/200/22
f 31/82/23 24/65/23 64/167/23
f 32/84/24 72/184/24 65/169/24
f 8/17/25 6/13/25 46/117/25
f 24/66/26 17/44/26 57/145/26
f 33/86/27 31/82/27 71/182/27
f 5/11/42 7/15/42 47/119/42
f 33/86/29 73/186/29 72/184/29
f 25/69/43 65/169/43 55/140/43
f 10/21/31 8/17/31 48/121/31
f 16/40/32 56/142/32 66/172/32
f 19/51/33 3/6/33 43/111/33
f 35/92/34 36/95/34 76/193/34
f 7/15/35 9/19/35 49/123/35
f 19/51/36 59/152/36 57/146/36
f 34/90/37 74/188/37 76/193/37
f 12/25/38 52/129/38 51/127/38
f 3/7/39 1/2/39 41/106/39
f 18/49/40 58/150/40 60/154/40
f 1/2/41 35/92/41 75/190/41
