# Blender 3.4.0 Alpha
# www.blender.org
mtllib Flower.mtl
o Plane
v -0.164890 -0.872225 0.000000
v 0.110152 -0.872225 -0.000000
v -0.338359 0.251842 0.000000
v -0.063316 0.251842 -0.000000
v -0.137513 -1.053655 0.000000
v 0.164902 -1.300000 -0.000000
v -0.110141 -1.700000 0.000000
v 0.164902 -1.700000 -0.000000
v 1.164901 -0.323408 -0.000000
v 1.164901 -0.860508 -0.000000
v -0.682044 -0.293642 0.000000
v -0.631863 -0.844677 0.000000
v 0.772937 0.529387 -0.000000
v 0.772937 -0.209742 -0.000000
v -0.654948 1.791273 0.000000
v -0.339491 1.791273 -0.000000
v 1.339530 0.921123 -0.000000
v 1.339530 0.621123 -0.000000
v 1.967803 -0.033252 -0.000000
v 1.967803 -0.311266 -0.000000
v -1.234039 -0.016988 0.000000
v -1.352649 -0.259124 0.000000
v -1.678627 0.032753 0.000000
v -1.756582 -0.126388 0.000000
v -0.870224 2.069524 0.000000
v -0.130363 2.085061 -0.000000
v -0.374169 2.419732 0.000000
v -0.703341 2.422258 0.000000
v -0.239314 3.004239 -0.000000
v -1.414489 2.150908 0.000000
v 0.902538 2.390066 -0.000000
v 0.820065 2.738648 0.000000
v 0.769443 1.412080 -0.000000
v -1.572327 1.159243 0.000000
v -1.771089 1.418304 0.000000
v -1.938660 2.626391 0.000000
v -1.968836 2.402158 0.000000
v -0.024594 1.371810 -0.000000
v 0.220536 2.648605 0.000000
v 0.336921 2.156693 -0.000000
v 0.320331 1.854679 -0.000000
v 0.512605 1.052528 -0.000000
v -1.425701 1.854374 0.000000
v -1.019995 1.325591 0.000000
v -1.341327 2.694553 0.000000
v -0.922252 3.009481 0.000000
v -0.413186 3.527874 -0.000000
v -0.848783 3.531218 -0.000000
v -0.164890 -0.872225 1.000000
v 0.110153 -0.872225 1.000000
v -0.338359 0.251842 1.000000
v -0.063316 0.251842 1.000000
v -0.137512 -1.053655 1.000000
v 0.164902 -1.300000 1.000000
v -0.110141 -1.700000 1.000000
v 0.164902 -1.700000 1.000000
v 1.164902 -0.323408 1.000000
v 1.164902 -0.860508 1.000000
v -0.682044 -0.293642 1.000000
v -0.631862 -0.844677 1.000000
v 0.772938 0.529387 1.000000
v 0.772938 -0.209742 1.000000
v -0.654948 1.791273 1.000000
v -0.339490 1.791273 1.000000
v 1.339531 0.921123 1.000000
v 1.339531 0.621123 1.000000
v 1.967803 -0.033252 1.000000
v 1.967803 -0.311266 1.000000
v -1.234038 -0.016988 1.000000
v -1.352649 -0.259124 1.000000
v -1.678626 0.032753 1.000000
v -1.756582 -0.126388 1.000000
v -0.870224 2.069524 1.000000
v -0.130363 2.085061 1.000000
v -0.374168 2.419732 1.000000
v -0.703341 2.422258 1.000000
v -0.239314 3.004239 1.000000
v -1.414488 2.150908 1.000000
v 0.902538 2.390066 1.000000
v 0.820065 2.738648 1.000000
v 0.769443 1.412080 1.000000
v -1.572326 1.159243 1.000000
v -1.771089 1.418304 1.000000
v -1.938659 2.626391 1.000000
v -1.968836 2.402158 1.000000
v -0.024594 1.371810 1.000000
v 0.220537 2.648605 1.000000
v 0.336921 2.156693 1.000000
v 0.320332 1.854679 1.000000
v 0.512605 1.052529 1.000000
v -1.425700 1.854374 1.000000
v -1.019995 1.325591 1.000000
v -1.341326 2.694553 1.000000
v -0.922252 3.009481 1.000000
v -0.413186 3.527874 1.000000
v -0.848783 3.531218 1.000000
vn -0.0000 -0.0000 -1.0000
vn -0.0000 -0.0000 1.0000
vn -0.1479 -0.9890 -0.0000
vn 0.8734 -0.4871 -0.0000
vn -0.1134 0.9936 -0.0000
vn 0.3925 0.9197 -0.0000
vn -0.9911 0.1334 -0.0000
vn -0.9888 -0.1492 -0.0000
vn 0.7870 -0.6169 -0.0000
vn 1.0000 -0.0000 -0.0000
vn -0.7934 -0.6087 -0.0000
vn -0.0000 -1.0000 -0.0000
vn -0.5687 0.8225 -0.0000
vn -0.4128 -0.9108 -0.0000
vn 0.9731 0.2302 -0.0000
vn 0.8262 -0.5634 -0.0000
vn 0.1515 -0.9885 -0.0000
vn 0.9744 -0.2248 -0.0000
vn -0.7997 -0.6004 -0.0000
vn -0.9370 -0.3493 -0.0000
vn 0.0077 1.0000 -0.0000
vn -0.3399 0.9405 -0.0000
vn -0.3592 0.9333 -0.0000
vn -0.6987 0.7154 -0.0000
vn 0.3814 -0.9244 -0.0000
vn -0.9902 0.1394 -0.0000
vn 0.5646 -0.8254 -0.0000
vn 0.6430 -0.7659 -0.0000
vn 0.9490 0.3151 -0.0000
vn 0.4552 0.8904 -0.0000
vn -0.5109 -0.8596 -0.0000
vn 0.9843 0.1766 -0.0000
vn -0.9883 -0.1525 -0.0000
vn -0.6305 -0.7762 -0.0000
vn -0.8537 -0.5207 -0.0000
vn 0.7019 0.7123 -0.0000
vn -0.9795 -0.2014 -0.0000
vn 0.4481 0.8940 -0.0000
vn 0.8137 -0.5813 -0.0000
vn 0.8129 0.5824 -0.0000
vn -0.1485 0.9889 -0.0000
vn 0.9883 0.1525 -0.0000
vn -0.8980 0.4399 -0.0000
vn -0.7839 0.6209 -0.0000
vn -0.3122 -0.9500 -0.0000
vn -0.3612 0.9325 -0.0000
vn -0.9040 0.4275 -0.0000
vn 0.2884 -0.9575 -0.0000
vn 0.1112 0.9938 -0.0000
vt 0.333219 0.215620
vt 0.331502 0.218186
vt 0.386796 0.214408
vt 0.387863 0.213848
vt 0.304380 0.435347
vt 0.304261 0.435676
vt 0.357957 0.434135
vt 0.356864 0.434096
vt 0.337752 0.180157
vt 0.336198 0.182711
vt 0.395576 0.130838
vt 0.594520 0.319149
vt 0.340237 0.054132
vt 0.238506 0.222885
vt 0.393814 0.052920
vt 0.339016 0.056020
vt 0.594674 0.316668
vt 0.751392 0.370241
vt 0.592308 0.212043
vt 0.393499 0.051804
vt 0.235029 0.330603
vt 0.333380 0.180120
vt 0.242376 0.223043
vt 0.105118 0.342484
vt 0.522079 0.484516
vt 0.520311 0.485804
vt 0.518822 0.340536
vt 0.395378 0.132747
vt 0.247899 0.739691
vt 0.841755 0.741465
vt 0.249493 0.736616
vt 0.844382 0.741546
vt 0.839851 0.685140
vt 0.838839 0.684483
vt 0.310943 0.735227
vt 0.308957 0.735404
vt 0.634174 0.558328
vt 0.633034 0.500514
vt 0.632852 0.499889
vt 0.516554 0.341731
vt 0.752354 0.369652
vt 0.749513 0.314289
vt 0.751129 0.315496
vt 0.591702 0.212647
vt 0.128721 0.386926
vt 0.232870 0.330547
vt 0.104550 0.340282
vt 0.023394 0.369184
vt 0.042337 0.398575
vt 0.129541 0.387088
vt 0.026450 0.367918
vt 0.040303 0.398894
vt 0.793484 0.782924
vt 0.794556 0.781203
vt 0.783837 0.649423
vt 0.785583 0.650154
vt 0.725638 0.696557
vt 0.727758 0.698392
vt 0.728225 0.756040
vt 0.730890 0.757588
vt 0.618810 0.677602
vt 0.620257 0.677797
vt 0.783815 0.881989
vt 0.783075 0.880730
vt 0.719193 0.465667
vt 0.719891 0.466688
vt 0.656990 0.483787
vt 0.659197 0.485911
vt 0.897081 0.480666
vt 0.896261 0.481342
vt 0.964403 0.901331
vt 0.965723 0.902461
vt 0.919445 0.939630
vt 0.921887 0.940703
vt 0.702773 0.981068
vt 0.700622 0.981959
vt 0.743556 0.984446
vt 0.746545 0.984216
vt 0.911696 0.623724
vt 0.911971 0.623216
vt 0.678798 0.591249
vt 0.679748 0.591436
vt 0.766578 0.565678
vt 0.767018 0.566540
vt 0.821285 0.565883
vt 0.823428 0.566209
vt 0.964403 0.523735
vt 0.966238 0.524853
vt 0.837483 0.881272
vt 0.840479 0.881885
vt 0.929248 0.803100
vt 0.928878 0.803435
vt 0.684938 0.873800
vt 0.684967 0.873203
vt 0.624177 0.801012
vt 0.624432 0.803530
vt 0.525831 0.713851
vt 0.526324 0.713879
vt 0.529254 0.792565
vt 0.529455 0.792297
vt 0.331734 0.217105
vt 0.333000 0.215368
vt 0.385311 0.215893
vt 0.385604 0.214787
vt 0.302895 0.436832
vt 0.303880 0.435676
vt 0.356472 0.435621
vt 0.358363 0.433156
vt 0.336267 0.181643
vt 0.335818 0.180833
vt 0.394091 0.132323
vt 0.594140 0.318210
vt 0.338751 0.055617
vt 0.242822 0.224763
vt 0.392328 0.054405
vt 0.340515 0.055081
vt 0.593189 0.318153
vt 0.751011 0.372119
vt 0.590823 0.213529
vt 0.394058 0.054622
vt 0.233543 0.332089
vt 0.334879 0.181059
vt 0.240891 0.224529
vt 0.107556 0.342484
vt 0.520593 0.486001
vt 0.522749 0.486743
vt 0.517337 0.342022
vt 0.395937 0.134625
vt 0.248008 0.738101
vt 0.842892 0.742167
vt 0.845579 0.741547
vt 0.246580 0.738752
vt 0.839975 0.685184
vt 0.309457 0.736711
vt 0.839911 0.684426
vt 0.309516 0.736344
vt 0.632689 0.559813
vt 0.631714 0.500514
vt 0.631368 0.501374
vt 0.519931 0.341731
vt 0.750869 0.371137
vt 0.751011 0.315228
vt 0.749644 0.316981
vt 0.592261 0.213587
vt 0.127236 0.388412
vt 0.233429 0.331486
vt 0.103064 0.341768
vt 0.023953 0.370123
vt 0.040851 0.400060
vt 0.125403 0.387088
vt 0.024965 0.369404
vt 0.041801 0.399833
vt 0.794621 0.783625
vt 0.799499 0.783290
vt 0.784974 0.650125
vt 0.783501 0.648726
vt 0.726775 0.697259
vt 0.725396 0.695261
vt 0.729362 0.756742
vt 0.729571 0.756544
vt 0.619946 0.678303
vt 0.618939 0.678840
vt 0.784952 0.882690
vt 0.782800 0.882817
vt 0.720330 0.466368
vt 0.719950 0.467402
vt 0.658127 0.484488
vt 0.657828 0.484483
vt 0.898218 0.481368
vt 0.897749 0.480628
vt 0.965540 0.902033
vt 0.966492 0.901417
vt 0.920582 0.940331
vt 0.921613 0.941746
vt 0.703910 0.981770
vt 0.701391 0.978828
vt 0.744693 0.985147
vt 0.742096 0.984216
vt 0.912833 0.624425
vt 0.911316 0.623930
vt 0.679934 0.591951
vt 0.679473 0.590393
vt 0.767714 0.566380
vt 0.767078 0.565826
vt 0.822422 0.566584
vt 0.823488 0.567637
vt 0.965540 0.524437
vt 0.964156 0.523425
vt 0.838620 0.881974
vt 0.836029 0.879798
vt 0.930385 0.803801
vt 0.930074 0.803435
vt 0.686075 0.874501
vt 0.682604 0.873203
vt 0.625314 0.801714
vt 0.624157 0.804574
vt 0.526968 0.714552
vt 0.527092 0.713879
vt 0.530391 0.793266
vt 0.530224 0.793341
s 0
usemtl Material
f 1/1/1 4/7/1 2/3/1
f 2/3/1 5/9/1 1/1/1
f 6/11/1 7/13/1 5/9/1
f 6/11/1 10/19/1 8/15/1
f 12/23/1 5/9/1 7/13/1
f 2/3/1 14/27/1 6/11/1
f 13/25/1 18/39/1 14/27/1
f 9/17/1 20/43/1 10/19/1
f 22/47/1 11/21/1 12/23/1
f 22/47/1 23/49/1 21/45/1
f 3/5/1 16/35/1 4/7/1
f 49/101/2 52/107/2 51/105/2
f 50/103/2 53/109/2 54/111/2
f 54/111/2 55/113/2 56/115/2
f 54/111/2 58/119/2 57/117/2
f 53/109/2 60/123/2 55/113/2
f 50/103/2 62/127/2 61/125/2
f 61/125/2 66/139/2 65/137/2
f 57/117/2 68/143/2 67/141/2
f 59/121/2 70/147/2 60/123/2
f 70/147/2 71/149/2 72/151/2
f 51/105/2 64/134/2 63/129/2
f 14/28/4 54/112/4 6/12/4
f 5/10/8 49/102/8 1/2/8
f 17/38/10 66/140/10 18/40/10
f 7/14/12 56/116/12 55/114/12
f 17/38/13 61/126/13 65/138/13
f 18/40/16 62/128/16 14/28/16
f 19/42/10 68/144/10 20/44/10
f 19/42/22 57/118/22 67/142/22
f 9/18/24 54/112/24 57/118/24
f 20/44/27 58/120/27 10/20/27
f 10/20/28 56/116/28 8/16/28
f 4/8/32 64/136/32 52/108/32
f 3/6/33 49/102/33 51/106/33
f 12/24/34 70/148/34 22/48/34
f 7/14/35 60/124/35 12/24/35
f 3/6/37 63/132/37 15/29/37
f 11/22/38 69/146/38 59/122/38
f 5/10/40 59/122/40 53/110/40
f 4/8/42 50/104/42 2/4/42
f 23/50/43 72/152/43 71/150/43
f 22/48/45 72/152/45 24/52/45
f 13/26/47 50/104/47 61/126/47
f 21/46/49 71/150/49 69/146/49
f 1/1/1 3/5/1 4/7/1
f 2/3/1 6/11/1 5/9/1
f 6/11/1 8/15/1 7/13/1
f 6/11/1 9/17/1 10/19/1
f 12/23/1 11/21/1 5/9/1
f 2/3/1 13/25/1 14/27/1
f 13/25/1 17/37/1 18/39/1
f 9/17/1 19/41/1 20/43/1
f 22/47/1 21/45/1 11/21/1
f 22/47/1 24/51/1 23/49/1
f 3/5/1 15/31/1 16/35/1
f 49/101/2 50/103/2 52/107/2
f 50/103/2 49/101/2 53/109/2
f 54/111/2 53/109/2 55/113/2
f 54/111/2 56/115/2 58/119/2
f 53/109/2 59/121/2 60/123/2
f 50/103/2 54/111/2 62/127/2
f 61/125/2 62/127/2 66/139/2
f 57/117/2 58/119/2 68/143/2
f 59/121/2 69/145/2 70/147/2
f 70/147/2 69/145/2 71/149/2
f 51/105/2 52/107/2 64/134/2
f 14/28/4 62/128/4 54/112/4
f 5/10/8 53/110/8 49/102/8
f 17/38/10 65/138/10 66/140/10
f 7/14/12 8/16/12 56/116/12
f 17/38/13 13/26/13 61/126/13
f 18/40/16 66/140/16 62/128/16
f 19/42/10 67/142/10 68/144/10
f 19/42/22 9/18/22 57/118/22
f 9/18/24 6/12/24 54/112/24
f 20/44/27 68/144/27 58/120/27
f 10/20/28 58/120/28 56/116/28
f 4/8/32 16/36/32 64/136/32
f 3/6/33 1/2/33 49/102/33
f 12/24/34 60/124/34 70/148/34
f 7/14/35 55/114/35 60/124/35
f 3/6/37 51/106/37 63/132/37
f 11/22/38 21/46/38 69/146/38
f 5/10/40 11/22/40 59/122/40
f 4/8/42 52/108/42 50/104/42
f 23/50/43 24/52/43 72/152/43
f 22/48/45 70/148/45 72/152/45
f 13/26/47 2/4/47 50/104/47
f 21/46/49 23/50/49 71/150/49
usemtl 
f 27/57/1 26/55/1 16/34/1
f 28/59/1 29/61/1 27/57/1
f 39/81/1 31/65/1 40/83/1
f 33/69/1 38/79/1 41/85/1
f 37/77/1 45/93/1 30/63/1
f 34/71/1 43/89/1 44/91/1
f 41/85/1 16/34/1 26/55/1
f 39/81/1 26/55/1 27/57/1
f 30/63/1 28/59/1 25/53/1
f 44/91/1 25/53/1 15/30/1
f 46/95/1 47/97/1 29/61/1
f 75/157/2 76/159/2 73/153/2
f 76/159/2 77/161/2 94/195/2
f 87/181/2 79/165/2 80/167/2
f 86/179/2 81/169/2 89/185/2
f 93/193/2 85/177/2 78/163/2
f 91/189/2 82/171/2 92/191/2
f 64/133/2 89/185/2 74/155/2
f 74/155/2 87/181/2 75/157/2
f 76/159/2 78/163/2 73/153/2
f 73/153/2 92/191/2 63/130/2
f 94/195/2 95/197/2 96/199/2
f 25/54/3 78/164/3 30/64/3
f 45/94/5 84/176/5 93/194/5
f 28/60/6 93/194/6 76/160/6
f 37/78/7 84/176/7 36/76/7
f 15/32/9 92/192/9 44/92/9
f 34/72/11 83/174/11 35/74/11
f 30/64/14 85/178/14 37/78/14
f 32/68/15 79/166/15 31/66/15
f 40/84/17 74/156/17 26/56/17
f 27/58/18 77/162/18 75/158/18
f 38/80/19 64/135/19 16/33/19
f 28/60/20 94/196/20 46/96/20
f 47/98/21 96/200/21 95/198/21
f 39/82/23 75/158/23 87/182/23
f 31/66/25 88/184/25 40/84/25
f 46/96/26 96/200/26 48/100/26
f 29/62/29 95/198/29 77/162/29
f 41/86/30 74/156/30 89/186/30
f 42/88/31 86/180/31 38/80/31
f 33/70/36 89/186/36 81/170/36
f 33/70/39 90/188/39 42/88/39
f 32/68/41 87/182/41 80/168/41
f 43/90/44 83/174/44 91/190/44
f 25/54/46 91/190/46 73/154/46
f 44/92/48 82/172/48 34/72/48
f 16/34/1 15/30/1 27/57/1
f 15/30/1 25/53/1 27/57/1
f 25/53/1 28/59/1 27/57/1
f 28/59/1 46/95/1 29/61/1
f 39/81/1 32/67/1 31/65/1
f 33/69/1 42/87/1 38/79/1
f 37/77/1 36/75/1 45/93/1
f 34/71/1 35/73/1 43/89/1
f 41/85/1 38/79/1 16/34/1
f 39/81/1 40/83/1 26/55/1
f 30/63/1 45/93/1 28/59/1
f 44/91/1 43/89/1 25/53/1
f 46/95/1 48/99/1 47/97/1
f 73/153/2 63/130/2 75/157/2
f 63/130/2 64/133/2 75/157/2
f 64/133/2 74/155/2 75/157/2
f 76/159/2 75/157/2 77/161/2
f 87/181/2 88/183/2 79/165/2
f 86/179/2 90/187/2 81/169/2
f 93/193/2 84/175/2 85/177/2
f 91/189/2 83/173/2 82/171/2
f 64/133/2 86/179/2 89/185/2
f 74/155/2 88/183/2 87/181/2
f 76/159/2 93/193/2 78/163/2
f 73/153/2 91/189/2 92/191/2
f 94/195/2 77/161/2 95/197/2
f 25/54/3 73/154/3 78/164/3
f 45/94/5 36/76/5 84/176/5
f 28/60/6 45/94/6 93/194/6
f 37/78/7 85/178/7 84/176/7
f 15/32/9 63/131/9 92/192/9
f 34/72/11 82/172/11 83/174/11
f 30/64/14 78/164/14 85/178/14
f 32/68/15 80/168/15 79/166/15
f 40/84/17 88/184/17 74/156/17
f 27/58/18 29/62/18 77/162/18
f 38/80/19 86/180/19 64/135/19
f 28/60/20 76/160/20 94/196/20
f 47/98/21 48/100/21 96/200/21
f 39/82/23 27/58/23 75/158/23
f 31/66/25 79/166/25 88/184/25
f 46/96/26 94/196/26 96/200/26
f 29/62/29 47/98/29 95/198/29
f 41/86/30 26/56/30 74/156/30
f 42/88/31 90/188/31 86/180/31
f 33/70/36 41/86/36 89/186/36
f 33/70/39 81/170/39 90/188/39
f 32/68/41 39/82/41 87/182/41
f 43/90/44 35/74/44 83/174/44
f 25/54/46 43/90/46 91/190/46
f 44/92/48 92/192/48 82/172/48
