# Blender 3.4.0 Alpha
# www.blender.org
mtllib Tisch.mtl
o Tisch
v 1.000000 -3.000000 -0.043087
v -1.000000 -3.000000 -0.043087
v 1.155115 4.900000 -0.043087
v -1.155115 4.900000 -0.043087
v 1.000000 6.600000 -0.043087
v -1.000000 6.600000 -0.043087
v -1.000000 -3.000000 -1.000000
v -1.155115 4.900000 -1.000000
v 1.155115 4.900000 -1.000000
v 1.000000 -3.000000 -1.000000
v -1.000000 6.600000 -1.000000
v 1.000000 6.600000 -1.000000
v -5.000000 5.133712 -0.043087
v -4.766288 4.900000 -0.043087
v -4.931547 4.968453 -0.043087
v -4.766288 6.600000 -0.043087
v -5.000000 6.366288 -0.043087
v -4.931547 6.531548 -0.043087
v 4.766288 4.900000 -0.043087
v 5.000000 5.133712 -0.043087
v 4.931547 4.968453 -0.043087
v 5.000000 6.366288 -0.043087
v 4.766288 6.600000 -0.043087
v 4.931547 6.531548 -0.043087
v -4.766288 4.900000 -1.000000
v -5.000000 5.133712 -1.000000
v -4.931547 4.968453 -1.000000
v -5.000000 6.366288 -1.000000
v -4.766288 6.600000 -1.000000
v -4.931547 6.531548 -1.000000
v 4.766288 6.600000 -1.000000
v 5.000000 6.366288 -1.000000
v 4.931547 6.531548 -1.000000
v 5.000000 5.133712 -1.000000
v 4.766288 4.900000 -1.000000
v 4.931547 4.968453 -1.000000
vn -0.0000 -0.0000 -1.0000
vn -0.0000 1.0000 -0.0000
vn -0.0000 -0.0000 1.0000
vn -0.0000 -1.0000 -0.0000
vn -1.0000 -0.0000 -0.0000
vn -0.9998 0.0196 -0.0000
vn 0.9998 0.0196 -0.0000
vn -0.9239 0.3827 -0.0000
vn -0.3827 0.9239 -0.0000
vn 0.9239 -0.3827 -0.0000
vn 0.3827 -0.9239 -0.0000
vn -0.9239 -0.3827 -0.0000
vn -0.3827 -0.9239 -0.0000
vn 0.9239 0.3827 -0.0000
vn 0.3827 0.9239 -0.0000
vn 1.0000 -0.0000 -0.0000
vt 0.407226 0.029452
vt 0.406951 0.023949
vt 0.603781 0.027744
vt 0.600106 0.029452
vt 0.598901 0.022269
vt 0.387754 0.789641
vt 0.392267 0.792247
vt 0.617117 0.787887
vt 0.615066 0.792247
vt 0.410205 0.953846
vt 0.407226 0.960407
vt 0.597274 0.952273
vt 0.600106 0.960407
vt 0.599940 0.020099
vt 0.602288 0.025523
vt 0.599034 0.027744
vt 0.614951 0.785546
vt 0.616606 0.791141
vt 0.391377 0.785546
vt 0.379109 0.788014
vt 0.406388 0.020099
vt 0.403832 0.023949
vt 0.599940 0.954290
vt 0.602288 0.955527
vt 0.406389 0.954290
vt 0.407085 0.955473
vt 0.989306 0.817879
vt 0.987571 0.819280
vt 0.965305 0.796471
vt 0.963279 0.793938
vt 0.981162 0.803264
vt 0.987680 0.800215
vt 0.963328 0.960407
vt 0.963279 0.956830
vt 0.986138 0.938141
vt 0.987680 0.932888
vt 0.979344 0.953998
vt 0.984426 0.950552
vt 0.042027 0.796471
vt 0.040946 0.793351
vt 0.019762 0.819280
vt 0.019799 0.818210
vt 0.026170 0.803264
vt 0.029559 0.793580
vt 0.023053 0.927684
vt 0.021195 0.938141
vt 0.044004 0.960407
vt 0.047453 0.944410
vt 0.027988 0.953998
vt 0.026306 0.949060
vt 0.966408 0.789783
vt 0.966666 0.795564
vt 0.988751 0.812672
vt 0.981307 0.817879
vt 0.982320 0.796600
vt 0.986187 0.796962
vt 0.987312 0.931946
vt 0.986187 0.931261
vt 0.964424 0.954290
vt 0.965040 0.956830
vt 0.980496 0.947859
vt 0.981307 0.950552
vt 0.041904 0.954290
vt 0.039453 0.950916
vt 0.019016 0.931946
vt 0.023186 0.919551
vt 0.025833 0.947859
vt 0.024813 0.944180
vt 0.017577 0.812672
vt 0.018306 0.816583
vt 0.039921 0.789783
vt 0.044333 0.791724
vt 0.024009 0.796600
vt 0.024813 0.795207
s 0
usemtl Material
f 2/4/1 4/9/1 3/7/1
f 5/11/1 3/7/1 4/9/1
f 14/30/2 4/8/2 8/18/2
f 3/6/2 19/40/2 35/72/2
f 9/19/3 8/17/3 7/14/3
f 8/17/3 9/19/3 12/25/3
f 34/69/3 35/71/3 36/73/3
f 5/10/4 6/12/4 11/24/4
f 23/48/4 5/10/4 12/26/4
f 20/42/5 22/45/5 32/66/5
f 28/57/3 29/59/3 30/61/3
f 2/5/2 1/2/2 10/22/2
f 6/12/4 16/34/4 29/60/4
f 1/2/6 3/6/6 9/20/6
f 23/47/1 22/46/1 19/39/1
f 4/8/7 2/3/7 7/16/7
f 17/35/1 16/33/1 14/29/1
f 20/42/8 34/70/8 36/74/8
f 21/44/9 36/74/9 35/72/9
f 17/36/10 28/58/10 30/62/10
f 18/38/11 30/62/11 29/60/11
f 32/66/12 22/45/12 24/50/12
f 33/68/13 24/50/13 23/48/13
f 26/54/14 13/27/14 15/32/14
f 27/56/15 15/32/15 14/30/15
f 17/36/16 13/27/16 26/54/16
f 2/4/1 3/7/1 1/1/1
f 5/11/1 4/9/1 6/13/1
f 14/30/2 8/18/2 25/52/2
f 3/6/2 35/72/2 9/20/2
f 9/19/3 7/14/3 10/21/3
f 8/17/3 12/25/3 11/23/3
f 35/71/3 31/63/3 9/19/3
f 9/19/3 31/63/3 12/25/3
f 31/63/3 32/65/3 33/67/3
f 35/71/3 32/65/3 31/63/3
f 32/65/3 35/71/3 34/69/3
f 5/10/4 11/24/4 12/26/4
f 23/48/4 12/26/4 31/64/4
f 20/42/5 32/66/5 34/70/5
f 29/59/3 8/17/3 11/23/3
f 8/17/3 29/59/3 25/51/3
f 25/51/3 26/53/3 27/55/3
f 29/59/3 28/57/3 25/51/3
f 26/53/3 25/51/3 28/57/3
f 2/5/2 10/22/2 7/15/2
f 6/12/4 29/60/4 11/24/4
f 1/2/6 9/20/6 10/22/6
f 5/11/1 23/47/1 3/7/1
f 3/7/1 23/47/1 19/39/1
f 19/39/1 20/41/1 21/43/1
f 20/41/1 19/39/1 22/46/1
f 22/46/1 23/47/1 24/49/1
f 4/8/7 7/16/7 8/18/7
f 4/9/1 16/33/1 6/13/1
f 16/33/1 17/35/1 18/37/1
f 17/35/1 14/29/1 13/28/1
f 13/28/1 14/29/1 15/31/1
f 14/29/1 16/33/1 4/9/1
f 20/42/8 36/74/8 21/44/8
f 21/44/9 35/72/9 19/40/9
f 17/36/10 30/62/10 18/38/10
f 18/38/11 29/60/11 16/34/11
f 32/66/12 24/50/12 33/68/12
f 33/68/13 23/48/13 31/64/13
f 26/54/14 15/32/14 27/56/14
f 27/56/15 14/30/15 25/52/15
f 17/36/16 26/54/16 28/58/16
