# Blender 3.4.0 Alpha
# www.blender.org
mtllib Wall.mtl
o Cube
v 1.000000 3.826756 -1.000000
v 1.000000 -1.000000 -1.000000
v 1.000000 3.826756 1.000000
v 1.000000 -1.000000 1.000000
v -1.000000 3.826756 -1.000000
v -1.000000 -1.000000 -1.000000
v -1.000000 3.826756 1.000000
v -1.000000 -1.000000 1.000000
vn -0.0000 1.0000 -0.0000
vn -0.0000 -0.0000 1.0000
vn -1.0000 -0.0000 -0.0000
vn -0.0000 -1.0000 -0.0000
vn 1.0000 -0.0000 -0.0000
vn -0.0000 -0.0000 -1.0000
vt 0.989115 0.995198
vt 0.989115 0.002497
vt 0.995525 0.004760
vt 0.992519 0.007722
vt 0.989115 0.987018
vt 0.995525 0.998583
vt 0.989115 0.999786
vt 0.988041 0.009083
vt 0.986139 0.002497
vt 0.988041 0.994383
vt 0.992519 0.006110
vt 0.986139 0.987018
vt 0.000214 0.995198
vt 0.014251 0.005901
vt -0.002677 -0.001441
vt 0.014250 0.998174
vt 0.016020 0.007722
vt -0.002677 0.992382
vt 0.000214 0.999786
vt 0.015282 0.009083
vt 0.011275 0.005901
vt 0.015282 0.994383
vt 0.011275 0.998174
vt 0.016020 0.006110
s 0
usemtl Material
f 1/1/1 5/13/1 7/19/1 3/7/1
f 4/10/2 3/8/2 7/20/2 8/22/2
f 8/23/3 7/21/3 5/14/3 6/16/3
f 6/17/4 2/4/4 4/11/4 8/24/4
f 2/5/5 1/2/5 3/9/5 4/12/5
f 6/18/6 5/15/6 1/3/6 2/6/6
